<svg width="100" height="100" viewBox="0 0 100 100" fill="none" xmlns="http://www.w3.org/2000/svg">
<path d="M40.6245 75C39.7962 74.9888 39.0021 74.6683 38.398 74.1016L16.523 52.2266C16.0246 51.6194 15.77 50.8486 15.8085 50.064C15.847 49.2795 16.176 48.5373 16.7314 47.9819C17.2868 47.4265 18.029 47.0975 18.8135 47.059C19.5981 47.0205 20.3689 47.2751 20.9761 47.7734L40.6245 67.4609L82.1479 25.8984C82.7551 25.4001 83.5259 25.1455 84.3105 25.184C85.095 25.2225 85.8372 25.5515 86.3926 26.1069C86.948 26.6623 87.277 27.4045 87.3155 28.189C87.3541 28.9736 87.0994 29.7444 86.6011 30.3516L42.8511 74.1016C42.2469 74.6683 41.4528 74.9888 40.6245 75Z" fill="white"/>
</svg>
