<svg width="48" height="48" viewBox="0 0 48 48" fill="none" xmlns="http://www.w3.org/2000/svg">
<rect width="48" height="48" rx="24" fill="#21DA7B"/>
<path d="M33 15.75V19.5C33 19.6989 32.921 19.8897 32.7803 20.0303C32.6397 20.171 32.4489 20.25 32.25 20.25C32.0511 20.25 31.8603 20.171 31.7197 20.0303C31.579 19.8897 31.5 19.6989 31.5 19.5V16.5H28.5C28.3011 16.5 28.1103 16.421 27.9697 16.2803C27.829 16.1397 27.75 15.9489 27.75 15.75C27.75 15.5511 27.829 15.3603 27.9697 15.2197C28.1103 15.079 28.3011 15 28.5 15H32.25C32.4489 15 32.6397 15.079 32.7803 15.2197C32.921 15.3603 33 15.5511 33 15.75ZM19.5 31.5H16.5V28.5C16.5 28.3011 16.421 28.1103 16.2803 27.9697C16.1397 27.829 15.9489 27.75 15.75 27.75C15.5511 27.75 15.3603 27.829 15.2197 27.9697C15.079 28.1103 15 28.3011 15 28.5V32.25C15 32.4489 15.079 32.6397 15.2197 32.7803C15.3603 32.921 15.5511 33 15.75 33H19.5C19.6989 33 19.8897 32.921 20.0303 32.7803C20.171 32.6397 20.25 32.4489 20.25 32.25C20.25 32.0511 20.171 31.8603 20.0303 31.7197C19.8897 31.579 19.6989 31.5 19.5 31.5ZM32.25 27.75C32.0511 27.75 31.8603 27.829 31.7197 27.9697C31.579 28.1103 31.5 28.3011 31.5 28.5V31.5H28.5C28.3011 31.5 28.1103 31.579 27.9697 31.7197C27.829 31.8603 27.75 32.0511 27.75 32.25C27.75 32.4489 27.829 32.6397 27.9697 32.7803C28.1103 32.921 28.3011 33 28.5 33H32.25C32.4489 33 32.6397 32.921 32.7803 32.7803C32.921 32.6397 33 32.4489 33 32.25V28.5C33 28.3011 32.921 28.1103 32.7803 27.9697C32.6397 27.829 32.4489 27.75 32.25 27.75ZM15.75 20.25C15.9489 20.25 16.1397 20.171 16.2803 20.0303C16.421 19.8897 16.5 19.6989 16.5 19.5V16.5H19.5C19.6989 16.5 19.8897 16.421 20.0303 16.2803C20.171 16.1397 20.25 15.9489 20.25 15.75C20.25 15.5511 20.171 15.3603 20.0303 15.2197C19.8897 15.079 19.6989 15 19.5 15H15.75C15.5511 15 15.3603 15.079 15.2197 15.2197C15.079 15.3603 15 15.5511 15 15.75V19.5C15 19.6989 15.079 19.8897 15.2197 20.0303C15.3603 20.171 15.5511 20.25 15.75 20.25ZM29.25 27.75V20.25C29.25 19.8522 29.092 19.4706 28.8107 19.1893C28.5294 18.908 28.1478 18.75 27.75 18.75H20.25C19.8522 18.75 19.4706 18.908 19.1893 19.1893C18.908 19.4706 18.75 19.8522 18.75 20.25V27.75C18.75 28.1478 18.908 28.5294 19.1893 28.8107C19.4706 29.092 19.8522 29.25 20.25 29.25H27.75C28.1478 29.25 28.5294 29.092 28.8107 28.8107C29.092 28.5294 29.25 28.1478 29.25 27.75Z" fill="white"/>
</svg>
