<svg width="100" height="100" viewBox="0 0 100 100" fill="none" xmlns="http://www.w3.org/2000/svg">
<path d="M62.5 6.25C57.5673 6.25595 52.7059 7.42806 48.3124 9.6707C43.9189 11.9133 40.118 15.163 37.2196 19.1544C34.3213 23.1458 32.4077 27.7659 31.635 32.6378C30.8623 37.5096 31.2524 42.4951 32.7735 47.1875L10.2735 69.6484C9.6931 70.2438 9.37036 71.0436 9.37505 71.875V87.5C9.37505 88.3288 9.70429 89.1237 10.2903 89.7097C10.8764 90.2958 11.6712 90.625 12.5001 90.625H28.1251C28.9539 90.625 29.7487 90.2958 30.3348 89.7097C30.9208 89.1237 31.2501 88.3288 31.2501 87.5V81.25H37.5001C38.3289 81.25 39.1237 80.9208 39.7098 80.3347C40.2958 79.7487 40.6251 78.9538 40.6251 78.125V71.875H46.875C47.7065 71.8797 48.5063 71.5569 49.1016 70.9766L52.8125 67.2266C57.1068 68.6189 61.6518 69.0642 66.1346 68.5321C70.6175 67.9999 74.9318 66.5027 78.7807 64.1437C82.6296 61.7847 85.9218 58.6197 88.4305 54.8667C90.9393 51.1137 92.6052 46.8617 93.3135 42.4032C94.0218 37.9448 93.7558 33.3859 92.5337 29.0401C91.3116 24.6943 89.1624 20.6649 86.2341 17.2292C83.3059 13.7934 79.6679 11.0329 75.5708 9.1376C71.4736 7.24228 67.0144 6.25715 62.5 6.25ZM70.3125 35.9375C69.0764 35.9375 67.868 35.5709 66.8402 34.8842C65.8124 34.1974 65.0113 33.2213 64.5383 32.0793C64.0653 30.9372 63.9415 29.6806 64.1826 28.4682C64.4238 27.2558 65.0191 26.1422 65.8931 25.2681C66.7672 24.394 67.8809 23.7987 69.0932 23.5576C70.3056 23.3164 71.5623 23.4402 72.7043 23.9133C73.8464 24.3863 74.8225 25.1874 75.5092 26.2152C76.196 27.243 76.5625 28.4514 76.5625 29.6875C76.5625 31.3451 75.9041 32.9348 74.732 34.1069C73.5599 35.279 71.9701 35.9375 70.3125 35.9375Z" fill="white"/>
</svg>
