<svg width="100" height="100" viewBox="0 0 100 100" fill="none" xmlns="http://www.w3.org/2000/svg">
<path d="M84.2976 46.172C84.1816 45.6683 83.9425 45.2012 83.6016 44.8127C83.2607 44.4241 82.8288 44.1261 82.3445 43.9455L59.8445 35.508L65.5476 6.87515C65.6788 6.2119 65.5941 5.52408 65.3058 4.9125C65.0176 4.30092 64.5411 3.79774 63.9461 3.47671C63.3452 3.15708 62.6555 3.04506 61.9843 3.1581C61.3131 3.27113 60.6982 3.60289 60.2351 4.10171L16.4851 50.9767C16.1267 51.3487 15.8673 51.8046 15.7308 52.3028C15.5943 52.8011 15.585 53.3256 15.7039 53.8283C15.8262 54.3292 16.0676 54.7932 16.4076 55.1809C16.7477 55.5685 17.1763 55.8683 17.657 56.0548L40.157 64.4923L34.4539 93.1252C34.3227 93.7884 34.4075 94.4762 34.6957 95.0878C34.9839 95.6994 35.4604 96.2026 36.0555 96.5236C36.504 96.7499 36.9984 96.8701 37.5008 96.8752C37.9253 96.877 38.3456 96.7912 38.7354 96.6231C39.1252 96.4551 39.4762 96.2084 39.7664 95.8986L83.5164 49.0236C83.8749 48.6517 84.1343 48.1957 84.2708 47.6975C84.4072 47.1992 84.4165 46.6747 84.2976 46.172Z" fill="white"/>
</svg>
