<svg width="100" height="100" viewBox="0 0 100 100" fill="none" xmlns="http://www.w3.org/2000/svg">
<path d="M86.7188 61.8752L68.3984 54.0627C67.4532 53.639 66.4155 53.4633 65.3834 53.5522C64.3513 53.641 63.359 53.9915 62.5 54.5705L52.6953 61.094C46.7197 58.1917 41.8816 53.381 38.9453 47.4221L45.4297 37.5002C46.0049 36.6404 46.3561 35.6505 46.4516 34.6204C46.5471 33.5903 46.3838 32.5527 45.9766 31.6018L38.125 13.2815C37.5771 12.0444 36.6494 11.014 35.4765 10.3398C34.3035 9.66548 32.9463 9.38237 31.6016 9.53146C26.3265 10.2225 21.4819 12.8056 17.9684 16.8004C14.455 20.7953 12.5117 25.9301 12.5 31.2502C12.5 62.2658 37.7344 87.5002 68.75 87.5002C74.0701 87.4885 79.2049 85.5452 83.1998 82.0318C87.1946 78.5183 89.7777 73.6737 90.4688 68.3987C90.6179 67.0539 90.3347 65.6967 89.6605 64.5237C88.9862 63.3508 87.9558 62.4231 86.7188 61.8752Z" fill="white"/>
<path d="M61.4838 18.6326C66.2405 19.9322 70.5761 22.4495 74.0629 25.9363C77.5497 29.4231 80.067 33.7587 81.3666 38.5154C81.539 39.1833 81.9275 39.7753 82.4716 40.1992C83.0156 40.6232 83.6847 40.8552 84.3744 40.8592C84.652 40.8587 84.9281 40.8192 85.1947 40.742C85.5919 40.6381 85.9644 40.4559 86.2904 40.2062C86.6163 39.9564 86.8892 39.6441 87.0929 39.2876C87.2966 38.9311 87.4271 38.5375 87.4768 38.1299C87.5265 37.7223 87.4943 37.3089 87.3822 36.9139C85.8198 31.0884 82.7522 25.7766 78.4874 21.5118C74.2226 17.247 68.9108 14.1794 63.0853 12.617C62.6777 12.4685 62.2436 12.4065 61.8107 12.4349C61.3778 12.4634 60.9555 12.5817 60.5709 12.7823C60.1862 12.9828 59.8475 13.2613 59.5763 13.6C59.3051 13.9386 59.1074 14.33 58.9958 14.7492C58.8842 15.1685 58.8611 15.6064 58.928 16.035C58.9949 16.4637 59.1503 16.8737 59.3843 17.239C59.6184 17.6043 59.9259 17.9169 60.2873 18.1568C60.6488 18.3967 61.0562 18.5588 61.4838 18.6326Z" fill="white"/>
<path d="M58.2416 30.7029C60.8856 31.4267 63.2956 32.8268 65.234 34.7652C67.1724 36.7036 68.5725 39.1136 69.2963 41.7576C69.4625 42.4288 69.8494 43.0247 70.3949 43.4497C70.9403 43.8747 71.6126 44.1042 72.3041 44.1014C72.5691 44.104 72.8328 44.0644 73.0853 43.9842C73.4861 43.8845 73.8628 43.7054 74.1931 43.4575C74.5233 43.2096 74.8005 42.898 75.0082 42.541C75.2158 42.184 75.3496 41.789 75.4018 41.3793C75.454 40.9697 75.4234 40.5537 75.3119 40.1561C74.3254 36.4432 72.3751 33.057 69.6586 30.3406C66.9422 27.6241 63.556 25.6738 59.8431 24.6873C59.4355 24.5388 59.0014 24.4768 58.5685 24.5053C58.1356 24.5337 57.7134 24.652 57.3287 24.8526C56.944 25.0531 56.6053 25.3316 56.3341 25.6703C56.0629 26.0089 55.8652 26.4003 55.7536 26.8196C55.642 27.2388 55.6189 27.6767 55.6858 28.1053C55.7527 28.534 55.9081 28.944 56.1421 29.3093C56.3762 29.6746 56.6837 29.9872 57.0452 30.2271C57.4066 30.4671 57.8141 30.6291 58.2416 30.7029Z" fill="white"/>
</svg>
